<?xml version="1.0"?>
<svg width="512" height="512" xmlns="http://www.w3.org/2000/svg" xmlns:svg="http://www.w3.org/2000/svg" version="1.1">

 <g class="layer">
  <title>Layer 1</title>
  <g id="layer2">
   <path d="m58.53,116.1c87.22,-103.03 267.73,-101.54 357.81,-37.92c65.12,45.9 63.6,99.47 54.66,133.3c-8.54,25.63 -29.61,39.88 -56.36,41.88" fill="none" fill-opacity="0.5" id="path8840" stroke="#000000" stroke-width="7.5" transform="matrix(1, 0, 0, 1, 0, 0)"/>
   <path d="m405.78,266.96c24.99,38.44 -2.41,90.32 -68.77,77.72" fill="none" fill-opacity="0.5" id="path9259" stroke="#000000" stroke-width="7.5"/>
   <path d="m41.6,142.79c-11.7,22.84 -31.27,106.33 30.72,145.13m28.38,10.24c28.7,8.51 64.31,9.13 88.45,5.69m23.05,12.88c0,0 11.77,21.02 20.73,28.71c14.41,12.36 39.76,12.04 49.35,28.42c7.56,12.91 4.38,43.1 4.38,43.1" fill="none" fill-opacity="0.5" id="path9261" stroke="#000000" stroke-width="7.5"/>
   <path d="m343.49,395.53l-0.49,51.35" fill="none" fill-opacity="0.5" id="path9263" stroke="#000000" stroke-width="7.5"/>
   <path d="m284.78,222.86c73.5,-21.84 73.59,-71.68 66.28,-108.62" fill="none" fill-opacity="0.5" id="path9267-2" stroke="#000000" stroke-width="20"/>
   <path d="m413.05,126.76c45.28,34.99 19.31,102.17 -23.61,83.62" fill="none" fill-opacity="0.5" id="path9269" stroke="#000000" stroke-width="20"/>
   <path d="m214.38,108.57c-17.68,26.59 -22.78,91.14 -11.57,125.53" fill="none" fill-opacity="0.5" id="path9273" stroke="#000000" stroke-width="20"/>
   <path d="m279.17,82.81c-10.51,-6.29 -34.48,-3.05 -46.21,5.86" fill="none" fill-opacity="0.5" id="path9273-7" stroke="#000000" stroke-width="20"/>
   <path d="m133.75,253.59c-15.83,7.5 -53.16,7.08 -63.84,-33.69c-10.68,-40.77 13.42,-102.89 72.22,-124.06" fill="none" fill-opacity="0.5" id="path9275" stroke="#000000" stroke-width="20" transform="matrix(1, 0, 0, 1, 0, 0)"/>
   <path d="m138.43,179.9c-24.46,8.68 -44.04,8.3 -66.91,0.75" fill="none" fill-opacity="0.5" id="path9275-3" stroke="#000000" stroke-width="20"/>
   <path d="m306.28,285.61l26.96,-13.05" fill="none" fill-opacity="0.5" id="path9279" stroke="#000000" stroke-width="7.5"/>
   <circle cx="51.85" cy="129.56" fill="none" fill-opacity="0.5" id="path9333" r="15" stroke="#000000" stroke-width="7.5"/>
   <circle cx="155.35" cy="94.39" fill="none" fill-opacity="0.5" id="path9333-0" r="15" stroke="#000000" stroke-width="7.5"/>
   <circle cx="222.69" cy="97.52" fill="none" fill-opacity="0.5" id="path9333-0-5" r="15" stroke="#000000" stroke-width="7.5"/>
   <circle cx="146.4" cy="250.59" fill="none" fill-opacity="0.5" id="path9333-0-7" r="15" stroke="#000000" stroke-width="7.5" transform="matrix(1, 0, 0, 1, 0, 0)"/>
   <circle cx="290.86" cy="89.88" fill="none" fill-opacity="0.5" id="path9333-0-0" r="15" stroke="#000000" stroke-width="7.5"/>
   <circle cx="205.31" cy="247.99" fill="none" fill-opacity="0.5" id="path9333-0-45" r="15" stroke="#000000" stroke-width="7.5" transform="matrix(1, 0, 0, 1, 0, 0)"/>
   <circle cx="402.95" cy="118.12" fill="none" fill-opacity="0.5" id="path9333-0-1" r="15" stroke="#000000" stroke-width="7.5"/>
   <circle cx="349.77" cy="100.74" fill="none" fill-opacity="0.5" id="path9333-0-1-7" r="15" stroke="#000000" stroke-width="7.5"/>
   <circle cx="377.43" cy="207.79" fill="none" fill-opacity="0.5" id="path9333-0-72" r="15" stroke="#000000" stroke-width="7.5" transform="matrix(1, 0, 0, 1, 0, 0)"/>
   <circle cx="398.41" cy="253.66" fill="none" fill-opacity="0.5" id="path9333-0-55" r="15" stroke="#000000" stroke-width="7.5"/>
   <circle cx="293.19" cy="292.56" fill="none" fill-opacity="0.5" id="path9333-0-08" r="15" stroke="#000000" stroke-width="7.5"/>
   <circle cx="347.94" cy="264.2" fill="none" fill-opacity="0.5" id="path9333-0-3" r="15" stroke="#000000" stroke-width="7.5"/>
   <circle cx="322.06" cy="340.19" fill="none" fill-opacity="0.5" id="path9333-0-64" r="15" stroke="#000000" stroke-width="7.5"/>
   <circle cx="343.99" cy="381.57" fill="none" fill-opacity="0.5" id="path9333-0-43" r="15" stroke="#000000" stroke-width="7.5"/>
   <circle cx="342" cy="461.33" fill="none" fill-opacity="0.5" id="path9333-0-89" r="15" stroke="#000000" stroke-width="7.5"/>
   <circle cx="286.16" cy="433.42" fill="none" fill-opacity="0.5" id="path9333-0-65" r="15" stroke="#000000" stroke-width="7.5"/>
   <circle cx="86.25" cy="294.32" fill="none" fill-opacity="0.5" id="path9333-0-79" r="15" stroke="#000000" stroke-width="7.5"/>
   <circle cx="204.22" cy="303.42" fill="none" fill-opacity="0.5" id="path9333-0-01" r="15" stroke="#000000" stroke-width="7.5"/>
   <circle cx="271.93" cy="226.85" fill="none" fill-opacity="0.5" id="path9333-0-48" r="15" stroke="#000000" stroke-width="7.5" transform="matrix(1, 0, 0, 1, 0, 0)"/>
   <circle cx="149.51" cy="174.94" fill="none" fill-opacity="0.5" id="path9333-0-7-4" r="15" stroke="#000000" stroke-width="7.5"/>
   <path d="m234.82,171.59c36.14,6.31 102.02,-26.58 66.72,-71.92" fill="none" fill-opacity="0.5" id="path9273-70" stroke="#000000" stroke-width="20"/>
  </g>
 </g>
</svg>